<?xml version="1.0" standalone="no"?><!DOCTYPE svg PUBLIC "-//W3C//DTD SVG 1.1//EN" "http://www.w3.org/Graphics/SVG/1.1/DTD/svg11.dtd"><svg t="1533457648509" class="icon" style="" viewBox="0 0 1024 1024" version="1.1" xmlns="http://www.w3.org/2000/svg" p-id="2630" xmlns:xlink="http://www.w3.org/1999/xlink" width="200" height="200"><defs><style type="text/css"></style></defs><path d="M512.149985 512.049995m-511.950005 0a511.950005 511.950005 0 1 0 1023.90001 0 511.950005 511.950005 0 1 0-1023.90001 0Z" fill="#F04D4E" p-id="2631"></path><path d="M646.436871 1006.201738c217.578752-58.994239 377.663119-257.874817 377.663119-494.151743 0-8.199199-0.19998-16.398399-0.599941-24.497608L741.727566 240.976467l-211.679329 97.090519L489.952153 298.970804l-22.897764-4.399571-36.296455 29.997071-82.191974 83.991798-34.19666 50.99502-42.095889 85.391661 21.597891 27.097353-28.297237 67.69339 380.862806 366.464212z" fill="#E04B53" p-id="2632"></path><path d="M453.655698 484.45269c76.59252 0 153.185041-84.691729 153.18504-84.691729l12.098819-12.098819L764.225369 540.947173c28.197246-28.197246 72.592911-80.69212 72.59291-145.185822 3.999609-44.395664-16.098428-84.691729-52.394883-120.988184-108.889366-112.888976-221.778342-8.099209-225.777951-3.99961L381.162777 452.155844c20.098037 20.198028 44.295674 32.296846 72.492921 32.296846z" fill="#FDB039" p-id="2633"></path><path d="M554.545845 694.132214c0-8.099209-3.999609-12.098818-8.099209-16.098428-3.999609-3.999609-12.098818-3.999609-16.098428-3.99961-8.099209 0-12.098818 3.999609-16.098428 8.099209 0 0 0 3.999609-3.999609 3.99961l-64.493702 80.69212v3.999609c-3.999609 3.999609-3.999609 8.099209-3.999609 12.098819 0 8.099209 3.999609 12.098818 8.099209 16.098428 12.098818 8.099209 28.197246 8.099209 36.296455-3.99961l64.493702-80.69212c-0.19998-8.099209 3.899619-12.098818 3.899619-20.198027zM488.052339 644.937018c0.19998-8.099209-3.799629-12.198809-7.699248-16.298408-3.899619-4.0996-11.998828-4.29958-15.998438-4.399571-8.099209-0.19998-12.198809 3.799629-16.298408 7.699248 0 0-0.09999 3.999609-4.0996 3.899619l-66.193536 79.292257-0.09999 3.999609c-4.0996 3.899619-4.19959 7.999219-4.29958 11.998829-0.19998 8.099209 3.799629 12.198809 7.699248 16.298408 11.898838 8.29919 28.097256 8.69915 36.396445-3.299678l66.193536-79.292256c0.19998-7.899229 4.29958-11.798848 4.399571-19.898057zM431.757836 593.442047c0.399961-8.099209-3.399668-12.298799-7.199297-16.498389-3.799629-4.19959-11.898838-4.599551-15.898447-4.899522-8.099209-0.399961-12.298799 3.399668-16.498389 7.199297 0 0-0.19998 3.999609-4.19959 3.799629l-68.593301 77.192462-0.199981 3.999609c-4.19959 3.799629-4.39957 7.799238-4.599551 11.898838-0.399961 8.099209 3.399668 12.298799 7.199297 16.498389 11.698858 8.69915 27.797285 9.499072 36.496436-2.199785l68.593302-77.192462c0.19998-7.899229 4.499561-11.698858 4.899521-19.798066zM374.963382 539.6473c0.399961-8.099209-3.499658-12.298799-7.299287-16.498389s-11.898838-4.599551-15.898447-4.699541c-8.099209-0.399961-12.298799 3.499658-16.498389 7.299287 0 0-0.19998 3.999609-4.19959 3.89962l-67.99336 77.692412-0.19998 3.99961c-4.19959 3.799629-4.39957 7.899229-4.599551 11.898838-0.399961 8.099209 3.499658 12.298799 7.299287 16.498389 11.698858 8.59916 27.797285 9.299092 36.396446-2.399766l67.99336-77.692413c0.499951-8.099209 4.699541-11.998828 4.999511-19.998047z" fill="#FDB039" p-id="2634"></path><path d="M554.545845 750.626697L518.24939 794.922371l20.198027 20.198027c3.999609 3.999609 12.098818 8.099209 20.198028 8.099209s16.098428-3.999609 20.198027-8.099209c3.999609-3.999609 8.099209-12.098818 8.099209-20.198027s-3.999609-16.098428-8.099209-20.198028l-24.297627-24.097646z" fill="#FCE170" p-id="2635"></path><path d="M667.434821 484.45269s0-3.999609 0 0L615.039938 427.958207c-24.197637 28.197246-88.691339 84.691729-161.28425 84.69173-40.296065 0-76.59252-16.098428-104.889757-52.394884l-8.099209-12.098818L489.952153 298.970804l-16.098428-16.098428s-52.394883-52.394883-120.988185-52.394884c-40.296065 0-80.69212 16.098428-116.988575 52.394884-32.296846 28.197246-44.395664 64.493702-44.395664 100.790157 0 72.592911 60.494092 137.086613 80.69212 161.28425l32.296846-40.296065c8.099209-12.098818 24.197637-20.198028 36.296455-20.198028 16.098428 0 28.197246 3.999609 40.296065 12.098819 12.098818 8.099209 20.198028 24.197637 20.198027 36.296455v3.999609c12.098818 0 28.197246 3.999609 36.296456 12.098819 12.098818 8.099209 20.198028 24.197637 20.198027 36.296455v3.99961c12.098818 0 28.197246 3.999609 36.296456 12.098818 12.098818 8.099209 20.198028 24.197637 20.198027 36.296456 16.098428-3.999609 32.296846 0 44.395665 12.098818 12.098818 8.099209 20.198028 24.197637 20.198027 36.296456s0 24.197637-8.099209 36.296455l28.197247 28.197246c3.999609 3.999609 12.098818 8.099209 20.198027 8.099209s16.098428-3.999609 20.198028-8.099209c3.999609-3.999609 8.099209-12.098818 8.099209-20.198027s-3.999609-16.098428-8.099209-20.198028l-3.99961-3.999609-100.990137-104.689776c-3.999609-8.099209-3.999609-16.098428 0-20.198028 3.999609-3.999609 12.098818-3.999609 20.198027 0 0 0 3.999609 0 3.99961 3.999609l100.790157 104.889757c12.098818 8.099209 28.197246 8.099209 40.296065 0s12.098818-24.197637 3.999609-36.296455l-3.999609-3.99961L598.841519 544.946783c-3.999609-8.099209-3.999609-16.098428 0-20.198028 3.999609-3.999609 12.098818-3.999609 16.098428-3.999609s3.999609 0 8.099209 3.999609l100.790158 104.889757s0 3.999609 3.999609 3.999609c12.098818 8.099209 24.197637 8.099209 36.296455-3.999609 3.999609-3.999609 8.099209-12.098818 8.099209-20.198028s-3.999609-16.098428-8.099209-20.198027l-96.690557-104.789767z" fill="#FCE170" p-id="2636"></path></svg>